<mxfile host="app.diagrams.net" modified="2023-12-08T20:18:24.699Z" agent="Mozilla/5.0 (Windows NT 10.0; Win64; x64; rv:120.0) Gecko/20100101 Firefox/120.0" etag="UggAmyQGBA76OS7JohNo" version="22.1.7" type="github">
  <diagram name="Page-1" id="o0p31ku0kj-w5Ca7l48k">
    <mxGraphModel dx="1050" dy="566" grid="1" gridSize="10" guides="1" tooltips="1" connect="1" arrows="1" fold="1" page="1" pageScale="1" pageWidth="850" pageHeight="1400" math="0" shadow="0">
      <root>
        <mxCell id="0" />
        <mxCell id="1" parent="0" />
        <mxCell id="ZW4pFpffIYV07VoiuqDM-143" value="Selected Emails (array)" style="text;html=1;strokeColor=none;fillColor=none;align=center;verticalAlign=middle;whiteSpace=wrap;rounded=0;fontSize=14;rotation=-90;" parent="1" vertex="1">
          <mxGeometry x="432.93999999999994" y="819.78" width="157" height="20.22" as="geometry" />
        </mxCell>
        <mxCell id="3qxQIVVk7hHFVeCOE2yt-1" value="End User" style="rounded=0;whiteSpace=wrap;html=1;fontSize=14;fillColor=none;" vertex="1" parent="1">
          <mxGeometry x="225.32999999999993" y="779.78" width="80" height="30" as="geometry" />
        </mxCell>
        <mxCell id="3qxQIVVk7hHFVeCOE2yt-3" value="&lt;div&gt;Authentication&lt;br&gt;&lt;/div&gt;&lt;div&gt;0.2&lt;/div&gt;" style="ellipse;whiteSpace=wrap;html=1;fillColor=none;fontSize=14;perimeterSpacing=0;strokeWidth=1;strokeColor=default;" vertex="1" parent="1">
          <mxGeometry x="193.97999999999985" y="495.82" width="100" height="97.28" as="geometry" />
        </mxCell>
        <mxCell id="3qxQIVVk7hHFVeCOE2yt-4" value="&lt;div&gt;Gmail API&lt;br&gt;&lt;/div&gt;&lt;div&gt;0.3&lt;/div&gt;" style="ellipse;whiteSpace=wrap;html=1;fillColor=none;fontSize=14;aspect=fixed;" vertex="1" parent="1">
          <mxGeometry x="471.00000000000006" y="519.2099999999999" width="80" height="80" as="geometry" />
        </mxCell>
        <mxCell id="3qxQIVVk7hHFVeCOE2yt-5" value="&lt;div&gt;Login&lt;/div&gt;&lt;div&gt;0.1&lt;br&gt;&lt;/div&gt;" style="ellipse;whiteSpace=wrap;html=1;aspect=fixed;fillColor=none;fontSize=14;" vertex="1" parent="1">
          <mxGeometry x="56.00000000000003" y="647.06" width="70" height="70" as="geometry" />
        </mxCell>
        <mxCell id="3qxQIVVk7hHFVeCOE2yt-8" value="" style="curved=1;endArrow=classic;html=1;rounded=0;fontSize=14;exitX=0.5;exitY=0;exitDx=0;exitDy=0;entryX=1;entryY=0.5;entryDx=0;entryDy=0;" edge="1" parent="1" source="3qxQIVVk7hHFVeCOE2yt-1" target="3qxQIVVk7hHFVeCOE2yt-5">
          <mxGeometry width="50" height="50" relative="1" as="geometry">
            <mxPoint x="277" y="680.5600000000001" as="sourcePoint" />
            <mxPoint x="181" y="699.5600000000001" as="targetPoint" />
            <Array as="points">
              <mxPoint x="201" y="709.78" />
            </Array>
          </mxGeometry>
        </mxCell>
        <mxCell id="3qxQIVVk7hHFVeCOE2yt-9" value="" style="curved=1;endArrow=classic;html=1;rounded=0;fontSize=14;exitX=0.5;exitY=0;exitDx=0;exitDy=0;entryX=0.33;entryY=0.978;entryDx=0;entryDy=0;entryPerimeter=0;" edge="1" parent="1" source="3qxQIVVk7hHFVeCOE2yt-1" target="3qxQIVVk7hHFVeCOE2yt-3">
          <mxGeometry width="50" height="50" relative="1" as="geometry">
            <mxPoint x="567" y="740.5600000000001" as="sourcePoint" />
            <mxPoint x="471" y="759.5600000000001" as="targetPoint" />
            <Array as="points">
              <mxPoint x="211" y="670" />
            </Array>
          </mxGeometry>
        </mxCell>
        <mxCell id="3qxQIVVk7hHFVeCOE2yt-10" value="" style="curved=1;endArrow=classic;html=1;rounded=0;fontSize=14;exitX=1;exitY=0.5;exitDx=0;exitDy=0;entryX=0;entryY=0;entryDx=0;entryDy=0;" edge="1" parent="1" source="3qxQIVVk7hHFVeCOE2yt-3" target="3qxQIVVk7hHFVeCOE2yt-4">
          <mxGeometry width="50" height="50" relative="1" as="geometry">
            <mxPoint x="315.3299999999999" y="579.5600000000001" as="sourcePoint" />
            <mxPoint x="411.3299999999999" y="560.56" as="targetPoint" />
            <Array as="points">
              <mxPoint x="381" y="569.78" />
            </Array>
          </mxGeometry>
        </mxCell>
        <mxCell id="3qxQIVVk7hHFVeCOE2yt-11" value="" style="curved=1;endArrow=classic;html=1;rounded=0;fontSize=14;exitX=1;exitY=0.5;exitDx=0;exitDy=0;entryX=0.5;entryY=0;entryDx=0;entryDy=0;" edge="1" parent="1" source="3qxQIVVk7hHFVeCOE2yt-5" target="3qxQIVVk7hHFVeCOE2yt-1">
          <mxGeometry width="50" height="50" relative="1" as="geometry">
            <mxPoint x="100.99999999999989" y="809.5600000000001" as="sourcePoint" />
            <mxPoint x="196.9999999999999" y="790.56" as="targetPoint" />
            <Array as="points">
              <mxPoint x="171" y="759.78" />
            </Array>
          </mxGeometry>
        </mxCell>
        <mxCell id="3qxQIVVk7hHFVeCOE2yt-12" value="Credentials" style="text;html=1;strokeColor=none;fillColor=none;align=center;verticalAlign=middle;whiteSpace=wrap;rounded=0;fontSize=14;rotation=30;" vertex="1" parent="1">
          <mxGeometry x="164" y="697.56" width="75.02" height="20.22" as="geometry" />
        </mxCell>
        <mxCell id="3qxQIVVk7hHFVeCOE2yt-13" value="&lt;div&gt;Session Cookie&lt;/div&gt;" style="text;html=1;strokeColor=none;fillColor=none;align=center;verticalAlign=middle;whiteSpace=wrap;rounded=0;fontSize=14;rotation=40;" vertex="1" parent="1">
          <mxGeometry x="119.20307361711946" y="736.0028810567665" width="108.93" height="30" as="geometry" />
        </mxCell>
        <mxCell id="3qxQIVVk7hHFVeCOE2yt-15" value="User Database" style="html=1;rounded=0;shadow=0;comic=0;labelBackgroundColor=none;strokeWidth=2;fontFamily=Verdana;fontSize=14;align=center;shape=mxgraph.ios7ui.horLines;fillColor=none;" vertex="1" parent="1">
          <mxGeometry x="43.979999999999905" y="849.78" width="115" height="49.36" as="geometry" />
        </mxCell>
        <mxCell id="3qxQIVVk7hHFVeCOE2yt-16" value="" style="curved=1;endArrow=classic;html=1;rounded=0;fontSize=14;exitX=0.5;exitY=1;exitDx=0;exitDy=0;entryX=0.444;entryY=0;entryDx=0;entryDy=0;entryPerimeter=0;" edge="1" parent="1" source="3qxQIVVk7hHFVeCOE2yt-5" target="3qxQIVVk7hHFVeCOE2yt-15">
          <mxGeometry width="50" height="50" relative="1" as="geometry">
            <mxPoint x="187" y="800.5600000000001" as="sourcePoint" />
            <mxPoint x="91" y="819.5600000000001" as="targetPoint" />
            <Array as="points">
              <mxPoint x="61" y="779.78" />
            </Array>
          </mxGeometry>
        </mxCell>
        <mxCell id="3qxQIVVk7hHFVeCOE2yt-17" value="" style="curved=1;endArrow=classic;html=1;rounded=0;fontSize=14;exitX=0.444;exitY=-0.02;exitDx=0;exitDy=0;entryX=0.5;entryY=1;entryDx=0;entryDy=0;exitPerimeter=0;" edge="1" parent="1" source="3qxQIVVk7hHFVeCOE2yt-15" target="3qxQIVVk7hHFVeCOE2yt-5">
          <mxGeometry width="50" height="50" relative="1" as="geometry">
            <mxPoint x="105" y="849.78" as="sourcePoint" />
            <mxPoint x="111" y="716.78" as="targetPoint" />
            <Array as="points">
              <mxPoint x="131" y="779.78" />
            </Array>
          </mxGeometry>
        </mxCell>
        <mxCell id="3qxQIVVk7hHFVeCOE2yt-18" value="&lt;div&gt;Credential&lt;/div&gt;&lt;div&gt;Validation&lt;/div&gt;" style="text;html=1;strokeColor=none;fillColor=none;align=center;verticalAlign=middle;whiteSpace=wrap;rounded=0;fontSize=14;rotation=0;" vertex="1" parent="1">
          <mxGeometry y="766" width="80" height="34.79" as="geometry" />
        </mxCell>
        <mxCell id="3qxQIVVk7hHFVeCOE2yt-19" value="User Data" style="text;html=1;strokeColor=none;fillColor=none;align=center;verticalAlign=middle;whiteSpace=wrap;rounded=0;fontSize=14;rotation=0;" vertex="1" parent="1">
          <mxGeometry x="109" y="773.56" width="75.02" height="20.22" as="geometry" />
        </mxCell>
        <mxCell id="3qxQIVVk7hHFVeCOE2yt-24" value="Scopes" style="text;html=1;strokeColor=none;fillColor=none;align=center;verticalAlign=middle;whiteSpace=wrap;rounded=0;fontSize=14;rotation=-85;" vertex="1" parent="1">
          <mxGeometry x="184.0217264809335" y="645.1279986202472" width="45.01654703813318" height="20.216997930371065" as="geometry" />
        </mxCell>
        <mxCell id="3qxQIVVk7hHFVeCOE2yt-26" value="Developer Credentials" style="text;html=1;strokeColor=none;fillColor=none;align=center;verticalAlign=middle;whiteSpace=wrap;rounded=0;fontSize=14;rotation=0;" vertex="1" parent="1">
          <mxGeometry x="318.29" y="549.1" width="145.67" height="20.9" as="geometry" />
        </mxCell>
        <mxCell id="3qxQIVVk7hHFVeCOE2yt-27" value="" style="curved=1;endArrow=classic;html=1;rounded=0;fontSize=14;exitX=1;exitY=1;exitDx=0;exitDy=0;entryX=0.5;entryY=0;entryDx=0;entryDy=0;" edge="1" parent="1" source="3qxQIVVk7hHFVeCOE2yt-3" target="3qxQIVVk7hHFVeCOE2yt-1">
          <mxGeometry width="50" height="50" relative="1" as="geometry">
            <mxPoint x="283.94" y="687.67" as="sourcePoint" />
            <mxPoint x="368.94" y="727.67" as="targetPoint" />
            <Array as="points">
              <mxPoint x="331" y="698.78" />
            </Array>
          </mxGeometry>
        </mxCell>
        <mxCell id="3qxQIVVk7hHFVeCOE2yt-28" value="Auth Database" style="html=1;rounded=0;shadow=0;comic=0;labelBackgroundColor=none;strokeWidth=2;fontFamily=Verdana;fontSize=14;align=center;shape=mxgraph.ios7ui.horLines;fillColor=none;" vertex="1" parent="1">
          <mxGeometry x="373.97999999999996" y="447.07" width="115" height="49.36" as="geometry" />
        </mxCell>
        <mxCell id="3qxQIVVk7hHFVeCOE2yt-29" value="" style="curved=1;endArrow=classic;html=1;rounded=0;fontSize=14;exitX=1;exitY=0;exitDx=0;exitDy=0;entryX=0.47;entryY=-0.02;entryDx=0;entryDy=0;entryPerimeter=0;" edge="1" parent="1" source="3qxQIVVk7hHFVeCOE2yt-3" target="3qxQIVVk7hHFVeCOE2yt-28">
          <mxGeometry width="50" height="50" relative="1" as="geometry">
            <mxPoint x="349.99999999999994" y="549.5600000000001" as="sourcePoint" />
            <mxPoint x="445.99999999999994" y="530.56" as="targetPoint" />
            <Array as="points">
              <mxPoint x="360" y="390" />
            </Array>
          </mxGeometry>
        </mxCell>
        <mxCell id="3qxQIVVk7hHFVeCOE2yt-30" value="&lt;div&gt;User Tokens&lt;/div&gt;" style="text;html=1;strokeColor=none;fillColor=none;align=center;verticalAlign=middle;whiteSpace=wrap;rounded=0;fontSize=14;rotation=-30;" vertex="1" parent="1">
          <mxGeometry x="287.6699999999999" y="741" width="80" height="20" as="geometry" />
        </mxCell>
        <mxCell id="3qxQIVVk7hHFVeCOE2yt-31" value="Scopes" style="text;html=1;strokeColor=none;fillColor=none;align=center;verticalAlign=middle;whiteSpace=wrap;rounded=0;fontSize=14;rotation=0;" vertex="1" parent="1">
          <mxGeometry x="358.4917264809335" y="534.3479986202473" width="45.01654703813318" height="20.216997930371065" as="geometry" />
        </mxCell>
        <mxCell id="3qxQIVVk7hHFVeCOE2yt-33" value="" style="curved=1;endArrow=classic;html=1;rounded=0;fontSize=14;exitX=0.5;exitY=0;exitDx=0;exitDy=0;entryX=1;entryY=0.5;entryDx=0;entryDy=0;" edge="1" parent="1" source="3qxQIVVk7hHFVeCOE2yt-4" target="3qxQIVVk7hHFVeCOE2yt-3">
          <mxGeometry width="50" height="50" relative="1" as="geometry">
            <mxPoint x="519.46" y="530.5600000000001" as="sourcePoint" />
            <mxPoint x="291" y="539.78" as="targetPoint" />
            <Array as="points">
              <mxPoint x="371" y="499.78" />
            </Array>
          </mxGeometry>
        </mxCell>
        <mxCell id="3qxQIVVk7hHFVeCOE2yt-34" value="&lt;div&gt;User Tokens&lt;/div&gt;" style="text;html=1;strokeColor=none;fillColor=none;align=center;verticalAlign=middle;whiteSpace=wrap;rounded=0;fontSize=14;rotation=-42;" vertex="1" parent="1">
          <mxGeometry x="266.0000000000001" y="440" width="80" height="20" as="geometry" />
        </mxCell>
        <mxCell id="3qxQIVVk7hHFVeCOE2yt-35" value="&lt;div&gt;Delete&lt;/div&gt;&lt;div&gt;Registered Emails&lt;br&gt;&lt;/div&gt;&lt;div&gt;0.9&lt;/div&gt;" style="ellipse;whiteSpace=wrap;html=1;fillColor=none;fontSize=14;aspect=fixed;" vertex="1" parent="1">
          <mxGeometry x="141" y="919.78" width="120" height="120" as="geometry" />
        </mxCell>
        <mxCell id="3qxQIVVk7hHFVeCOE2yt-36" value="" style="curved=1;endArrow=classic;html=1;rounded=0;fontSize=14;exitX=0;exitY=0.5;exitDx=0;exitDy=0;entryX=0.496;entryY=0.972;entryDx=0;entryDy=0;entryPerimeter=0;" edge="1" parent="1" source="3qxQIVVk7hHFVeCOE2yt-35" target="3qxQIVVk7hHFVeCOE2yt-15">
          <mxGeometry width="50" height="50" relative="1" as="geometry">
            <mxPoint x="111" y="960.5600000000001" as="sourcePoint" />
            <mxPoint x="15" y="979.5600000000001" as="targetPoint" />
            <Array as="points">
              <mxPoint x="111" y="969.78" />
            </Array>
          </mxGeometry>
        </mxCell>
        <mxCell id="3qxQIVVk7hHFVeCOE2yt-37" value="" style="curved=1;endArrow=classic;html=1;rounded=0;fontSize=14;exitX=0.5;exitY=1;exitDx=0;exitDy=0;entryX=1;entryY=0;entryDx=0;entryDy=0;" edge="1" parent="1" source="3qxQIVVk7hHFVeCOE2yt-1" target="3qxQIVVk7hHFVeCOE2yt-35">
          <mxGeometry width="50" height="50" relative="1" as="geometry">
            <mxPoint x="335" y="900.7800000000001" as="sourcePoint" />
            <mxPoint x="239" y="919.7800000000001" as="targetPoint" />
            <Array as="points">
              <mxPoint x="281" y="869.78" />
            </Array>
          </mxGeometry>
        </mxCell>
        <mxCell id="3qxQIVVk7hHFVeCOE2yt-38" value="Email" style="text;html=1;strokeColor=none;fillColor=none;align=center;verticalAlign=middle;whiteSpace=wrap;rounded=0;fontSize=14;rotation=0;" vertex="1" parent="1">
          <mxGeometry x="221.4717264809335" y="849.7779986202471" width="45.01654703813318" height="20.216997930371065" as="geometry" />
        </mxCell>
        <mxCell id="3qxQIVVk7hHFVeCOE2yt-39" value="Email" style="text;html=1;strokeColor=none;fillColor=none;align=center;verticalAlign=middle;whiteSpace=wrap;rounded=0;fontSize=14;rotation=0;" vertex="1" parent="1">
          <mxGeometry x="111.47172648093351" y="929.7779986202471" width="45.01654703813318" height="20.216997930371065" as="geometry" />
        </mxCell>
        <mxCell id="3qxQIVVk7hHFVeCOE2yt-41" value="Unblock Emails&lt;br&gt;&lt;div&gt;0.7&lt;/div&gt;" style="ellipse;whiteSpace=wrap;html=1;fillColor=none;fontSize=14;aspect=fixed;" vertex="1" parent="1">
          <mxGeometry x="360" y="884.89" width="90" height="90" as="geometry" />
        </mxCell>
        <mxCell id="3qxQIVVk7hHFVeCOE2yt-42" value="" style="curved=1;endArrow=classic;html=1;rounded=0;fontSize=14;exitX=0.5;exitY=1;exitDx=0;exitDy=0;entryX=0;entryY=0.5;entryDx=0;entryDy=0;" edge="1" parent="1" source="3qxQIVVk7hHFVeCOE2yt-1" target="3qxQIVVk7hHFVeCOE2yt-41">
          <mxGeometry width="50" height="50" relative="1" as="geometry">
            <mxPoint x="317.9599999999999" y="889.3500000000001" as="sourcePoint" />
            <mxPoint x="413.9599999999999" y="870.3499999999999" as="targetPoint" />
            <Array as="points">
              <mxPoint x="291" y="889.78" />
            </Array>
          </mxGeometry>
        </mxCell>
        <mxCell id="3qxQIVVk7hHFVeCOE2yt-43" value="&lt;div&gt;Updated cookie&lt;/div&gt;&lt;div&gt;with&lt;br&gt;&lt;/div&gt;&lt;div&gt;User Tokens&lt;/div&gt;" style="text;html=1;strokeColor=none;fillColor=none;align=center;verticalAlign=middle;whiteSpace=wrap;rounded=0;fontSize=14;rotation=-86;" vertex="1" parent="1">
          <mxGeometry x="225.4" y="646.34" width="108.13" height="39.16" as="geometry" />
        </mxCell>
        <mxCell id="3qxQIVVk7hHFVeCOE2yt-51" value="&lt;div&gt;User&lt;/div&gt;&lt;div&gt;Tokens&lt;/div&gt;" style="text;html=1;strokeColor=none;fillColor=none;align=center;verticalAlign=middle;whiteSpace=wrap;rounded=0;fontSize=14;rotation=0;" vertex="1" parent="1">
          <mxGeometry x="293.98" y="840" width="80" height="40" as="geometry" />
        </mxCell>
        <mxCell id="3qxQIVVk7hHFVeCOE2yt-52" value="&lt;div&gt;Block Emails&lt;br&gt;&lt;/div&gt;&lt;div&gt;0.4&lt;/div&gt;" style="ellipse;whiteSpace=wrap;html=1;fillColor=none;fontSize=14;aspect=fixed;" vertex="1" parent="1">
          <mxGeometry x="373.97999999999996" y="676" width="90" height="90" as="geometry" />
        </mxCell>
        <mxCell id="3qxQIVVk7hHFVeCOE2yt-54" value="" style="curved=1;endArrow=classic;html=1;rounded=0;fontSize=14;exitX=0.5;exitY=0;exitDx=0;exitDy=0;entryX=0;entryY=0.5;entryDx=0;entryDy=0;" edge="1" parent="1" source="3qxQIVVk7hHFVeCOE2yt-1" target="3qxQIVVk7hHFVeCOE2yt-52">
          <mxGeometry width="50" height="50" relative="1" as="geometry">
            <mxPoint x="287.6699999999999" y="765.7800000000001" as="sourcePoint" />
            <mxPoint x="383.6699999999999" y="746.78" as="targetPoint" />
            <Array as="points">
              <mxPoint x="327.6699999999999" y="736" />
            </Array>
          </mxGeometry>
        </mxCell>
        <mxCell id="3qxQIVVk7hHFVeCOE2yt-55" value="&lt;div&gt;User Tokens&lt;/div&gt;" style="text;html=1;strokeColor=none;fillColor=none;align=center;verticalAlign=middle;whiteSpace=wrap;rounded=0;fontSize=14;rotation=-5;" vertex="1" parent="1">
          <mxGeometry x="335" y="499.21" width="80" height="20" as="geometry" />
        </mxCell>
        <mxCell id="3qxQIVVk7hHFVeCOE2yt-58" value="&lt;div&gt;Fetch Inbox&lt;br&gt;&lt;/div&gt;&lt;div&gt;0.5&lt;/div&gt;" style="ellipse;whiteSpace=wrap;html=1;fillColor=none;fontSize=14;aspect=fixed;" vertex="1" parent="1">
          <mxGeometry x="700" y="509.2100000000001" width="90" height="90" as="geometry" />
        </mxCell>
        <mxCell id="3qxQIVVk7hHFVeCOE2yt-59" value="&lt;div&gt;Blocking&lt;br&gt;&lt;/div&gt;&lt;div&gt;0.6&lt;/div&gt;" style="ellipse;whiteSpace=wrap;html=1;fillColor=none;fontSize=14;aspect=fixed;" vertex="1" parent="1">
          <mxGeometry x="690.3" y="637.0600000000001" width="90" height="90" as="geometry" />
        </mxCell>
        <mxCell id="3qxQIVVk7hHFVeCOE2yt-60" value="" style="curved=1;endArrow=classic;html=1;rounded=0;fontSize=14;exitX=0.5;exitY=0;exitDx=0;exitDy=0;entryX=0;entryY=1;entryDx=0;entryDy=0;" edge="1" parent="1" source="3qxQIVVk7hHFVeCOE2yt-52" target="3qxQIVVk7hHFVeCOE2yt-4">
          <mxGeometry width="50" height="50" relative="1" as="geometry">
            <mxPoint x="480.9999999999999" y="676.8400000000001" as="sourcePoint" />
            <mxPoint x="576.9999999999999" y="657.8399999999999" as="targetPoint" />
            <Array as="points">
              <mxPoint x="431" y="620" />
            </Array>
          </mxGeometry>
        </mxCell>
        <mxCell id="3qxQIVVk7hHFVeCOE2yt-61" value="" style="curved=1;endArrow=classic;html=1;rounded=0;fontSize=14;exitX=1;exitY=0;exitDx=0;exitDy=0;entryX=0.5;entryY=0;entryDx=0;entryDy=0;" edge="1" parent="1" source="3qxQIVVk7hHFVeCOE2yt-4" target="3qxQIVVk7hHFVeCOE2yt-58">
          <mxGeometry width="50" height="50" relative="1" as="geometry">
            <mxPoint x="654.9999999999999" y="659.7800000000001" as="sourcePoint" />
            <mxPoint x="750.9999999999999" y="640.78" as="targetPoint" />
            <Array as="points">
              <mxPoint x="630" y="460" />
            </Array>
          </mxGeometry>
        </mxCell>
        <mxCell id="3qxQIVVk7hHFVeCOE2yt-62" value="&lt;div&gt;User Tokens&lt;/div&gt;" style="text;html=1;strokeColor=none;fillColor=none;align=center;verticalAlign=middle;whiteSpace=wrap;rounded=0;fontSize=14;rotation=-60;" vertex="1" parent="1">
          <mxGeometry x="389.94" y="807.11" width="80" height="18.23" as="geometry" />
        </mxCell>
        <mxCell id="3qxQIVVk7hHFVeCOE2yt-64" value="User Tokens" style="text;html=1;strokeColor=none;fillColor=none;align=center;verticalAlign=middle;whiteSpace=wrap;rounded=0;fontSize=14;rotation=0;" vertex="1" parent="1">
          <mxGeometry x="589.41" y="459.9" width="110.59" height="20.22" as="geometry" />
        </mxCell>
        <mxCell id="3qxQIVVk7hHFVeCOE2yt-65" value="" style="curved=1;endArrow=classic;html=1;rounded=0;fontSize=14;exitX=0.5;exitY=0;exitDx=0;exitDy=0;entryX=0.273;entryY=0.969;entryDx=0;entryDy=0;entryPerimeter=0;" edge="1" parent="1" source="3qxQIVVk7hHFVeCOE2yt-41" target="3qxQIVVk7hHFVeCOE2yt-4">
          <mxGeometry width="50" height="50" relative="1" as="geometry">
            <mxPoint x="463.98" y="830" as="sourcePoint" />
            <mxPoint x="527.98" y="750" as="targetPoint" />
            <Array as="points">
              <mxPoint x="475.98" y="774" />
            </Array>
          </mxGeometry>
        </mxCell>
        <mxCell id="3qxQIVVk7hHFVeCOE2yt-66" value="&lt;div&gt;User Tokens&lt;/div&gt;" style="text;html=1;strokeColor=none;fillColor=none;align=center;verticalAlign=middle;whiteSpace=wrap;rounded=0;fontSize=14;rotation=-60;" vertex="1" parent="1">
          <mxGeometry x="383.9599999999999" y="621" width="80" height="20" as="geometry" />
        </mxCell>
        <mxCell id="3qxQIVVk7hHFVeCOE2yt-67" value="" style="curved=1;endArrow=classic;html=1;rounded=0;fontSize=14;exitX=0;exitY=1;exitDx=0;exitDy=0;entryX=1;entryY=0.389;entryDx=0;entryDy=0;entryPerimeter=0;" edge="1" parent="1" source="3qxQIVVk7hHFVeCOE2yt-58" target="3qxQIVVk7hHFVeCOE2yt-52">
          <mxGeometry width="50" height="50" relative="1" as="geometry">
            <mxPoint x="479.48" y="790.7800000000001" as="sourcePoint" />
            <mxPoint x="383.48" y="809.7800000000001" as="targetPoint" />
            <Array as="points">
              <mxPoint x="621" y="721" />
            </Array>
          </mxGeometry>
        </mxCell>
        <mxCell id="3qxQIVVk7hHFVeCOE2yt-68" value="Email List (array)" style="text;html=1;strokeColor=none;fillColor=none;align=center;verticalAlign=middle;whiteSpace=wrap;rounded=0;fontSize=14;rotation=-15;" vertex="1" parent="1">
          <mxGeometry x="551" y="665.28" width="110.59" height="20.22" as="geometry" />
        </mxCell>
        <mxCell id="3qxQIVVk7hHFVeCOE2yt-70" value="" style="curved=1;endArrow=classic;html=1;rounded=0;fontSize=14;exitX=1;exitY=0.589;exitDx=0;exitDy=0;entryX=0;entryY=0.5;entryDx=0;entryDy=0;exitPerimeter=0;" edge="1" parent="1" source="3qxQIVVk7hHFVeCOE2yt-52" target="3qxQIVVk7hHFVeCOE2yt-59">
          <mxGeometry width="50" height="50" relative="1" as="geometry">
            <mxPoint x="505.9999999999999" y="770.7800000000001" as="sourcePoint" />
            <mxPoint x="601.9999999999999" y="751.78" as="targetPoint" />
            <Array as="points">
              <mxPoint x="545.9999999999999" y="741" />
            </Array>
          </mxGeometry>
        </mxCell>
        <mxCell id="3qxQIVVk7hHFVeCOE2yt-74" value="BlockedEmail Database" style="html=1;rounded=0;shadow=0;comic=0;labelBackgroundColor=none;strokeWidth=2;fontFamily=Verdana;fontSize=14;align=center;shape=mxgraph.ios7ui.horLines;fillColor=none;" vertex="1" parent="1">
          <mxGeometry x="652.8299999999999" y="860" width="164.94" height="49.36" as="geometry" />
        </mxCell>
        <mxCell id="3qxQIVVk7hHFVeCOE2yt-75" value="" style="curved=1;endArrow=classic;html=1;rounded=0;fontSize=14;exitX=1;exitY=1;exitDx=0;exitDy=0;entryX=0.547;entryY=-0.081;entryDx=0;entryDy=0;entryPerimeter=0;" edge="1" parent="1" source="3qxQIVVk7hHFVeCOE2yt-59" target="3qxQIVVk7hHFVeCOE2yt-74">
          <mxGeometry width="50" height="50" relative="1" as="geometry">
            <mxPoint x="740.9999999999999" y="790.7800000000001" as="sourcePoint" />
            <mxPoint x="836.9999999999999" y="771.78" as="targetPoint" />
            <Array as="points">
              <mxPoint x="781" y="800" />
            </Array>
          </mxGeometry>
        </mxCell>
        <mxCell id="3qxQIVVk7hHFVeCOE2yt-76" value="" style="curved=1;endArrow=classic;html=1;rounded=0;fontSize=14;exitX=1;exitY=0.5;exitDx=0;exitDy=0;entryX=0.58;entryY=1.062;entryDx=0;entryDy=0;entryPerimeter=0;" edge="1" parent="1" source="3qxQIVVk7hHFVeCOE2yt-41" target="3qxQIVVk7hHFVeCOE2yt-74">
          <mxGeometry width="50" height="50" relative="1" as="geometry">
            <mxPoint x="577.9999999999999" y="959.5600000000002" as="sourcePoint" />
            <mxPoint x="673.9999999999999" y="940.56" as="targetPoint" />
            <Array as="points">
              <mxPoint x="618" y="950" />
            </Array>
          </mxGeometry>
        </mxCell>
        <mxCell id="3qxQIVVk7hHFVeCOE2yt-77" value="" style="curved=1;endArrow=classic;html=1;rounded=0;fontSize=14;exitX=0.702;exitY=1.149;exitDx=0;exitDy=0;entryX=0.968;entryY=0.639;entryDx=0;entryDy=0;exitPerimeter=0;entryPerimeter=0;" edge="1" parent="1" source="3qxQIVVk7hHFVeCOE2yt-74" target="3qxQIVVk7hHFVeCOE2yt-41">
          <mxGeometry width="50" height="50" relative="1" as="geometry">
            <mxPoint x="651" y="1020.7800000000002" as="sourcePoint" />
            <mxPoint x="555" y="1039.7800000000002" as="targetPoint" />
            <Array as="points">
              <mxPoint x="610" y="980" />
            </Array>
          </mxGeometry>
        </mxCell>
        <mxCell id="3qxQIVVk7hHFVeCOE2yt-78" value="User Email" style="text;html=1;strokeColor=none;fillColor=none;align=center;verticalAlign=middle;whiteSpace=wrap;rounded=0;fontSize=14;rotation=0;" vertex="1" parent="1">
          <mxGeometry x="541.94" y="919.78" width="75.02" height="20.22" as="geometry" />
        </mxCell>
        <mxCell id="3qxQIVVk7hHFVeCOE2yt-79" value="Email List (array)" style="text;html=1;strokeColor=none;fillColor=none;align=center;verticalAlign=middle;whiteSpace=wrap;rounded=0;fontSize=14;rotation=-5;" vertex="1" parent="1">
          <mxGeometry x="543" y="960.6700000000001" width="110.59" height="20.22" as="geometry" />
        </mxCell>
        <mxCell id="3qxQIVVk7hHFVeCOE2yt-80" value="&lt;div&gt;Unblocking&lt;br&gt;&lt;/div&gt;&lt;div&gt;0.8&lt;/div&gt;" style="ellipse;whiteSpace=wrap;html=1;fillColor=none;fontSize=14;aspect=fixed;" vertex="1" parent="1">
          <mxGeometry x="453" y="1000.0000000000001" width="90" height="90" as="geometry" />
        </mxCell>
        <mxCell id="3qxQIVVk7hHFVeCOE2yt-81" value="" style="curved=1;endArrow=classic;html=1;rounded=0;fontSize=14;exitX=1;exitY=0.5;exitDx=0;exitDy=0;entryX=0.771;entryY=1.062;entryDx=0;entryDy=0;entryPerimeter=0;" edge="1" parent="1" source="3qxQIVVk7hHFVeCOE2yt-80" target="3qxQIVVk7hHFVeCOE2yt-74">
          <mxGeometry width="50" height="50" relative="1" as="geometry">
            <mxPoint x="673.9999999999999" y="1019.7800000000002" as="sourcePoint" />
            <mxPoint x="769.9999999999999" y="1000.78" as="targetPoint" />
            <Array as="points">
              <mxPoint x="700" y="1010" />
            </Array>
          </mxGeometry>
        </mxCell>
        <mxCell id="3qxQIVVk7hHFVeCOE2yt-82" value="&lt;div&gt;Blocked Emails&lt;/div&gt;&lt;div&gt;(array)&lt;/div&gt;" style="text;html=1;strokeColor=none;fillColor=none;align=center;verticalAlign=middle;whiteSpace=wrap;rounded=0;fontSize=14;rotation=0;" vertex="1" parent="1">
          <mxGeometry x="671.6" y="761.13" width="98.4" height="44.54" as="geometry" />
        </mxCell>
        <mxCell id="3qxQIVVk7hHFVeCOE2yt-83" value="" style="curved=1;endArrow=classic;html=1;rounded=0;fontSize=14;entryX=1;entryY=1;entryDx=0;entryDy=0;exitX=0;exitY=0;exitDx=0;exitDy=0;" edge="1" parent="1" source="3qxQIVVk7hHFVeCOE2yt-59" target="3qxQIVVk7hHFVeCOE2yt-4">
          <mxGeometry width="50" height="50" relative="1" as="geometry">
            <mxPoint x="573.5" y="665.34" as="sourcePoint" />
            <mxPoint x="637.5" y="576.34" as="targetPoint" />
            <Array as="points">
              <mxPoint x="585.5" y="609.34" />
            </Array>
          </mxGeometry>
        </mxCell>
        <mxCell id="3qxQIVVk7hHFVeCOE2yt-84" value="" style="curved=1;endArrow=classic;html=1;rounded=0;fontSize=14;entryX=0.5;entryY=0;entryDx=0;entryDy=0;exitX=1;exitY=0.5;exitDx=0;exitDy=0;" edge="1" parent="1" source="3qxQIVVk7hHFVeCOE2yt-4" target="3qxQIVVk7hHFVeCOE2yt-59">
          <mxGeometry width="50" height="50" relative="1" as="geometry">
            <mxPoint x="626.5" y="595" as="sourcePoint" />
            <mxPoint x="738.5" y="741" as="targetPoint" />
            <Array as="points">
              <mxPoint x="660" y="570" />
            </Array>
          </mxGeometry>
        </mxCell>
        <mxCell id="3qxQIVVk7hHFVeCOE2yt-85" value="Email List (array)" style="text;html=1;strokeColor=none;fillColor=none;align=center;verticalAlign=middle;whiteSpace=wrap;rounded=0;fontSize=14;rotation=20;" vertex="1" parent="1">
          <mxGeometry x="551" y="616.84" width="110.59" height="20.22" as="geometry" />
        </mxCell>
        <mxCell id="3qxQIVVk7hHFVeCOE2yt-86" value="User Tokens" style="text;html=1;strokeColor=none;fillColor=none;align=center;verticalAlign=middle;whiteSpace=wrap;rounded=0;fontSize=14;rotation=25;" vertex="1" parent="1">
          <mxGeometry x="565.53" y="599.2099999999999" width="88.06" height="20.22" as="geometry" />
        </mxCell>
        <mxCell id="3qxQIVVk7hHFVeCOE2yt-88" value="Blocking Status" style="text;html=1;strokeColor=none;fillColor=none;align=center;verticalAlign=middle;whiteSpace=wrap;rounded=0;fontSize=14;rotation=15;" vertex="1" parent="1">
          <mxGeometry x="587.41" y="560.0999999999999" width="110.59" height="20.22" as="geometry" />
        </mxCell>
        <mxCell id="3qxQIVVk7hHFVeCOE2yt-89" value="" style="curved=1;endArrow=classic;html=1;rounded=0;fontSize=14;entryX=0.702;entryY=0.951;entryDx=0;entryDy=0;entryPerimeter=0;exitX=0.5;exitY=0;exitDx=0;exitDy=0;" edge="1" parent="1" source="3qxQIVVk7hHFVeCOE2yt-80" target="3qxQIVVk7hHFVeCOE2yt-4">
          <mxGeometry width="50" height="50" relative="1" as="geometry">
            <mxPoint x="498" y="1010" as="sourcePoint" />
            <mxPoint x="521" y="609" as="targetPoint" />
            <Array as="points">
              <mxPoint x="485.98" y="784" />
            </Array>
          </mxGeometry>
        </mxCell>
        <mxCell id="3qxQIVVk7hHFVeCOE2yt-91" value="&lt;div&gt;User Tokens&lt;/div&gt;" style="text;html=1;strokeColor=none;fillColor=none;align=center;verticalAlign=middle;whiteSpace=wrap;rounded=0;fontSize=14;rotation=-85;" vertex="1" parent="1">
          <mxGeometry x="442.9999999999999" y="840" width="80" height="20" as="geometry" />
        </mxCell>
        <mxCell id="3qxQIVVk7hHFVeCOE2yt-92" value="Selected Emails (array)" style="text;html=1;strokeColor=none;fillColor=none;align=center;verticalAlign=middle;whiteSpace=wrap;rounded=0;fontSize=14;rotation=-15;" vertex="1" parent="1">
          <mxGeometry x="541" y="710.89" width="157" height="20.22" as="geometry" />
        </mxCell>
        <mxCell id="3qxQIVVk7hHFVeCOE2yt-93" value="Unblocked Emails&lt;div&gt;(array)&lt;/div&gt;" style="text;html=1;strokeColor=none;fillColor=none;align=center;verticalAlign=middle;whiteSpace=wrap;rounded=0;fontSize=14;rotation=-25;" vertex="1" parent="1">
          <mxGeometry x="616.96" y="995.24" width="127" height="44.54" as="geometry" />
        </mxCell>
        <mxCell id="3qxQIVVk7hHFVeCOE2yt-94" value="" style="curved=1;endArrow=classic;html=1;rounded=0;fontSize=14;entryX=1;entryY=0;entryDx=0;entryDy=0;exitX=1;exitY=1;exitDx=0;exitDy=0;" edge="1" parent="1" source="3qxQIVVk7hHFVeCOE2yt-4" target="3qxQIVVk7hHFVeCOE2yt-80">
          <mxGeometry width="50" height="50" relative="1" as="geometry">
            <mxPoint x="537" y="605" as="sourcePoint" />
            <mxPoint x="508" y="1010" as="targetPoint" />
            <Array as="points">
              <mxPoint x="550" y="810" />
            </Array>
          </mxGeometry>
        </mxCell>
        <mxCell id="3qxQIVVk7hHFVeCOE2yt-96" value="Unblocking Status" style="text;html=1;strokeColor=none;fillColor=none;align=center;verticalAlign=middle;whiteSpace=wrap;rounded=0;fontSize=14;rotation=-85;" vertex="1" parent="1">
          <mxGeometry x="495.40999999999997" y="829.56" width="127.59" height="20.22" as="geometry" />
        </mxCell>
      </root>
    </mxGraphModel>
  </diagram>
</mxfile>
